<?xml version="1.0" encoding="UTF-8" standalone="no"?>
<!-- Created with Inkscape (http://www.inkscape.org/) -->

<svg
   width="271.87625mm"
   height="76.998856mm"
   viewBox="0 0 271.87626 76.998854"
   version="1.1"
   id="svg8"
   inkscape:version="1.1 (ce6663b3b7, 2021-05-25)"
   sodipodi:docname="logo-text-landscape_color.svg"
   xmlns:inkscape="http://www.inkscape.org/namespaces/inkscape"
   xmlns:sodipodi="http://sodipodi.sourceforge.net/DTD/sodipodi-0.dtd"
   xmlns="http://www.w3.org/2000/svg"
   xmlns:svg="http://www.w3.org/2000/svg"
   xmlns:rdf="http://www.w3.org/1999/02/22-rdf-syntax-ns#"
   xmlns:cc="http://creativecommons.org/ns#"
   xmlns:dc="http://purl.org/dc/elements/1.1/">
  <defs
     id="defs2" />
  <sodipodi:namedview
     id="base"
     pagecolor="#ffffff"
     bordercolor="#666666"
     borderopacity="1.0"
     inkscape:pageopacity="0.0"
     inkscape:pageshadow="2"
     inkscape:zoom="1.28"
     inkscape:cx="527.34375"
     inkscape:cy="178.51562"
     inkscape:document-units="mm"
     inkscape:current-layer="layer1"
     showgrid="false"
     units="mm"
     width="100mm"
     showguides="false"
     fit-margin-top="0"
     fit-margin-left="0"
     fit-margin-right="0"
     fit-margin-bottom="0"
     inkscape:window-width="2554"
     inkscape:window-height="1389"
     inkscape:window-x="0"
     inkscape:window-y="22"
     inkscape:window-maximized="0"
     inkscape:snap-bbox="true"
     inkscape:bbox-paths="true"
     inkscape:guide-bbox="true"
     inkscape:snap-text-baseline="false"
     inkscape:bbox-nodes="true"
     inkscape:snap-bbox-edge-midpoints="true"
     inkscape:snap-bbox-midpoints="true"
     inkscape:object-paths="true"
     inkscape:snap-intersection-paths="true"
     inkscape:snap-page="true"
     inkscape:pagecheckerboard="0">
    <sodipodi:guide
       position="-1.1928066e-06,30.901256"
       orientation="1,0"
       id="guide821"
       inkscape:locked="false" />
    <sodipodi:guide
       position="90.753414,36.967023"
       orientation="1,0"
       id="guide823"
       inkscape:locked="false" />
    <sodipodi:guide
       position="60.791566,1.6815104e-05"
       orientation="0,1"
       id="guide825"
       inkscape:locked="false" />
    <sodipodi:guide
       position="30.942474,3.6286085"
       orientation="0,1"
       id="guide827"
       inkscape:locked="false" />
  </sodipodi:namedview>
  <metadata
     id="metadata5">
    <rdf:RDF>
      <cc:Work
         rdf:about="">
        <dc:format>image/svg+xml</dc:format>
        <dc:type
           rdf:resource="http://purl.org/dc/dcmitype/StillImage" />
        <dc:title />
      </cc:Work>
    </rdf:RDF>
  </metadata>
  <g
     inkscape:label="Layer 1"
     inkscape:groupmode="layer"
     id="layer1"
     transform="translate(-4.0675577,-206.71527)">
    <path
       style="fill:none;stroke:#4caf50;stroke-width:18.8976;stroke-miterlimit:4;stroke-dasharray:none;stroke-opacity:1"
       d="m 248.92969,59.380859 a 61.78571,61.78571 0 0 0 -58.03516,40.837891 61.785711,61.785711 0 0 1 34.99805,55.5918 61.785711,61.785711 0 0 1 -51.6211,60.92773 61.78571,61.78571 0 0 0 35.3711,11.21484 61.78571,61.78571 0 0 0 36.96484,-12.35546 61.78571,61.78571 0 0 0 40.53516,15.21093 61.78571,61.78571 0 0 0 61.78711,-61.78515 61.78571,61.78571 0 0 0 -38.99414,-57.3711 61.78571,61.78571 0 0 0 -61.00586,-52.271481 z"
       transform="matrix(0.26458333,0,0,0.26458333,0,197)"
       id="path4530"
       inkscape:connector-curvature="0" />
    <rect
       id="rect4557"
       width="4.8191962"
       height="30.710564"
       x="62.744045"
       y="252.87128"
       style="fill:#4caf50;fill-opacity:1;stroke:#4caf50;stroke-width:0.264583;stroke-opacity:1" />
    <path
       style="fill:none;stroke:#4caf50;stroke-width:18.8976;stroke-miterlimit:4;stroke-dasharray:none;stroke-opacity:1"
       d="M 125.89258,46.167969 A 61.785711,61.785711 0 0 0 65.529297,94.929688 61.785711,61.785711 0 0 0 24.822266,152.95312 61.785711,61.785711 0 0 0 86.607422,214.73828 61.785711,61.785711 0 0 0 123.57031,202.38281 61.785711,61.785711 0 0 0 164.10742,217.5957 61.785711,61.785711 0 0 0 225.89258,155.81055 61.785711,61.785711 0 0 0 186.89844,98.439453 61.785711,61.785711 0 0 0 125.89258,46.167969 Z"
       transform="matrix(0.26458333,0,0,0.26458333,0,197)"
       id="path4530-9"
       inkscape:connector-curvature="0" />
    <rect
       id="rect4557-7"
       width="4.8191962"
       height="30.710566"
       x="30.190842"
       y="249.37497"
       style="fill:#4caf50;fill-opacity:1;stroke:#4caf50;stroke-width:0.264583;stroke-opacity:0" />
    <g
       aria-label="FRISP"
       transform="matrix(0.92411568,0,0,1.0821156,0,-6.8554678e-6)"
       id="text831"
       style="font-weight:500;font-size:81.485px;line-height:1.25;font-family:'Roboto Condensed';-inkscape-font-specification:'Roboto Condensed, Medium';letter-spacing:0px;word-spacing:0px;fill:#757575;stroke-width:2.03712">
      <path
         d="m 113.59075,255.57213 v -57.93074 h 31.19348 v 8.3156 h -21.20679 v 16.90973 h 18.50123 v 8.27582 h -18.50123 v 24.42959 z"
         id="path446" />
      <path
         d="m 179.35965,255.57213 -9.35008,-22.20148 h -7.51986 v 22.20148 h -9.9469 v -57.93074 h 17.58612 q 8.63391,0 13.24927,4.45621 4.65515,4.45621 4.65515,13.01054 0,11.37925 -8.63391,15.75589 l 10.62329,24.19086 v 0.51724 z m -16.86994,-49.61514 v 19.13784 h 7.32092 q 4.13791,0 6.20686,-2.66577 2.06896,-2.66577 2.06896,-6.80368 0,-9.46945 -7.55964,-9.66839 z"
         id="path448" />
      <path
         d="m 206.89268,197.64139 v 57.93074 h -9.9469 v -57.93074 z"
         id="path450" />
      <path
         d="m 242.58215,240.5722 q 0,-3.38194 -1.71087,-5.49068 -1.67108,-2.10875 -8.19624,-4.61537 -6.48538,-2.50661 -10.94159,-6.4058 -4.41643,-3.89918 -4.57558,-10.66308 v -0.47745 q 0,-7.08219 4.8143,-11.57819 4.85409,-4.496 12.77182,-4.496 8.43497,0 13.12991,5.21218 4.73472,5.17239 4.73472,12.4933 h -9.9469 q 0,-4.13791 -1.87001,-6.80367 -1.87002,-2.70556 -6.16708,-2.70556 -3.89919,0 -5.72942,2.26789 -1.79044,2.22811 -1.79044,5.57027 0,3.183 2.46683,5.33153 2.46683,2.10875 6.96283,3.89919 8.3554,2.86471 12.17501,7.16177 3.81961,4.29706 3.81961,11.2201 0,7.3607 -4.69494,11.61798 -4.65515,4.25727 -12.81161,4.25727 -4.8143,0 -9.27051,-2.02917 -4.41642,-2.02916 -7.28113,-6.12729 -2.82492,-4.09812 -2.82492,-10.2652 h 9.98669 q 0,5.4509 2.54641,7.87795 2.5464,2.38725 6.84346,2.38725 3.93898,0 5.72942,-2.10874 1.83023,-2.14853 1.83023,-5.53048 z"
         id="path452" />
      <path
         d="m 271.07007,234.1664 v 21.40573 h -9.98669 v -57.93074 h 19.33678 q 8.63391,0 13.40842,5.25196 4.77451,5.21217 4.77451,13.24927 0,8.43497 -4.77451,13.24927 -4.77451,4.77451 -13.40842,4.77451 z m 0,-28.20941 v 19.93359 h 9.35009 q 4.37663,0 6.28644,-2.70556 1.9098,-2.70555 1.9098,-6.96283 0,-4.01854 -1.9098,-7.12198 -1.90981,-3.14322 -6.28644,-3.14322 z"
         id="path454" />
    </g>
  </g>
</svg>
